<svg width="217" height="223" viewBox="0 0 217 223" fill="none" xmlns="http://www.w3.org/2000/svg">
<g clip-path="url(#clip0_159_63)">
<path d="M217 111.5C209.686 104.169 200.996 98.3551 191.429 94.3926C181.861 90.4301 171.605 88.397 161.25 88.4102C168.581 81.0965 174.395 72.4064 178.357 62.839C182.32 53.2717 184.353 43.0157 184.34 32.6602C162.551 32.6602 142.853 41.4873 128.59 55.75C128.59 35.5871 120.878 15.3777 105.5 0C98.1689 7.31369 92.3551 16.0038 88.3926 25.5712C84.4301 35.1385 82.397 45.3946 82.4102 55.75C75.0965 48.4189 66.4064 42.6051 56.839 38.6426C47.2717 34.6801 37.0157 32.647 26.6602 32.6602C26.6602 54.4027 35.4873 74.1475 49.75 88.4102C29.5871 88.4102 9.37771 96.1223 -6 111.5C1.31369 118.831 10.0038 124.645 19.5712 128.607C29.1385 132.57 39.3946 134.603 49.75 134.59C42.4189 141.903 36.6051 150.594 32.6426 160.161C28.6801 169.728 26.647 179.984 26.6602 190.34C48.4027 190.34 68.1475 181.513 82.4102 167.25C82.4102 187.413 90.1223 207.622 105.5 223C112.831 215.686 118.645 206.996 122.607 197.429C126.57 187.861 128.603 177.605 128.59 167.25C135.903 174.581 144.594 180.395 154.161 184.357C163.728 188.32 173.984 190.353 184.34 190.34C184.34 168.551 175.513 148.853 161.25 134.59C181.413 134.59 201.622 126.878 217 111.5ZM105.5 139.375C98.1071 139.375 91.017 136.438 85.7894 131.211C80.5618 125.983 77.625 118.893 77.625 111.5C77.625 104.107 80.5618 97.017 85.7894 91.7894C91.017 86.5618 98.1071 83.625 105.5 83.625C112.893 83.625 119.983 86.5618 125.211 91.7894C130.438 97.017 133.375 104.107 133.375 111.5C133.375 118.893 130.438 125.983 125.211 131.211C119.983 136.438 112.893 139.375 105.5 139.375Z" fill="#FBF7F4"/>
</g>
<defs>
<clipPath id="clip0_159_63">
<rect width="223" height="223" fill="white" transform="translate(-6)"/>
</clipPath>
</defs>
</svg>
